<?xml version="1.0" encoding="UTF-8" standalone="no"?>
<!DOCTYPE svg PUBLIC "-//W3C//DTD SVG 1.1//EN" "http://www.w3.org/Graphics/SVG/1.1/DTD/svg11.dtd">
<svg width="100%" height="100%" viewBox="0 0 1018 999" version="1.1" xmlns="http://www.w3.org/2000/svg" xmlns:xlink="http://www.w3.org/1999/xlink" xml:space="preserve" xmlns:serif="http://www.serif.com/" style="fill-rule:evenodd;clip-rule:evenodd;stroke-linejoin:round;stroke-miterlimit:2;">
    <g id="Artboard1" transform="matrix(0.782652,0,0,0.907721,-469.591,-181.544)">
        <rect x="600" y="200" width="1300" height="1100" style="fill:none;"/>
        <g transform="matrix(1.27771,0,0,1.10166,562.429,211.987)">
            <ellipse cx="540" cy="494.56" rx="460" ry="465.44" style="fill:none;"/>
        </g>
        <g transform="matrix(1.17263,-0.270914,0.314206,1.01106,-411.841,364.369)">
            <path d="M1245.57,794.746C1253.03,783.729 1265.74,774.084 1279.14,765.543C1311.6,744.852 1349.4,731.846 1349.4,731.846C1361.46,727.631 1367.83,714.421 1363.61,702.364C1359.4,690.307 1346.19,683.94 1334.13,688.154C1334.13,688.154 1291.2,703.341 1254.47,727.293C1234.98,740.007 1217.36,755.263 1207.08,771.624C1196.79,787.981 1195.46,800.742 1197.4,809.615C1199.44,819.014 1204.7,826.422 1213.23,831.598C1223.86,838.041 1243.44,840.384 1266,837.588C1303.02,832.996 1349.83,817.664 1357.95,814.943C1369.15,812.597 1444.27,796.684 1512.17,777.671C1555.37,765.574 1595.67,752.037 1616.28,739.994C1648.91,720.916 1668.7,692.962 1680.12,662.921C1705.28,596.749 1688.6,520.705 1688.6,520.705C1688.6,520.704 1688.6,520.702 1688.6,520.701C1668.43,429.905 1606.18,344.672 1511.19,285.664C1436,238.957 1340.27,208.564 1229.14,205.175C1088.77,200.904 960.932,261.219 868.763,357.981C778.289,452.965 722.179,582.994 722.758,720.851C722.872,859.66 782.201,985.902 875.579,1078.02C968.825,1170.01 1096.24,1228.11 1234.85,1229.08C1359.05,1230.5 1469.49,1184.97 1554.15,1115.41C1649.58,1037.01 1711.86,927.699 1724.71,818.802C1726.03,806.099 1716.79,794.711 1704.09,793.388C1691.38,792.066 1679.99,801.306 1678.67,814.009C1669.71,913.195 1615.06,1013.65 1530.21,1087.01C1452.91,1153.84 1350.68,1198.25 1234.85,1199.58C1103.45,1200.5 981.353,1147.5 892.42,1060.85C803.041,973.753 747.341,852.914 747.449,720.851C748,589.925 802.179,466.784 888.932,377.37C976.171,287.454 1096.46,231.72 1228.02,237.039C1332.53,241.257 1422.42,270.423 1492.73,315.065C1578.13,369.288 1634.46,446.356 1651.89,528.667C1651.89,528.663 1662.6,579.522 1649.77,630.088C1642.47,658.849 1627.3,687.734 1596.31,705.407C1577.5,716.132 1540.63,727.524 1501.31,738.06C1428.84,757.48 1348.07,773.153 1348.07,773.153C1347.17,773.334 1346.28,773.573 1345.41,773.868C1345.41,773.868 1307.25,786.536 1272.67,792.233C1262.96,793.832 1253.56,794.876 1245.57,794.746Z" style="fill:white;"/>
        </g>
        <g transform="matrix(1.23417,-0.285131,0.330695,1.06412,-528.62,350.973)">
            <path d="M973.095,508.698C969.44,510.233 960.966,514.591 944.056,526.774C933.041,534.709 917.563,546.403 895.852,563.618C882.706,574.04 867.172,586.284 849.058,601.202C840.06,609.356 839.374,623.28 847.527,632.277C855.681,641.275 869.605,641.961 878.602,633.808C905.991,606.724 926.508,586.961 942.538,573.196C960.059,558.152 970.489,550.339 976.45,546.315C968.296,580.805 921.381,732.041 902.143,795.521C898.362,807.997 895.62,817.171 894.395,821.583C889.363,839.712 903.361,848.67 904.016,849.062C914.537,855.124 928,851.504 934.062,840.984C935.347,838.753 936.197,836.391 936.634,833.992C936.877,833.953 936.75,833.187 936.88,832.653C937.922,828.382 940.272,819.493 943.551,807.413C962.082,739.141 1008.92,571.738 1012.61,547.988C1015.92,527.266 1009.62,517.497 1004.23,512.624C998.77,507.697 992.147,505.762 985.8,505.885C978.489,506.025 972.038,509.066 972.038,509.066L973.095,508.698Z" style="fill:white;"/>
        </g>
        <g transform="matrix(1.23417,-0.285131,0.330695,1.06412,-391.305,323.811)">
            <path d="M973.095,508.698C969.44,510.233 960.966,514.591 944.056,526.774C933.041,534.709 917.563,546.403 895.852,563.618C882.706,574.04 867.172,586.284 849.058,601.202C840.06,609.356 839.374,623.28 847.527,632.277C855.681,641.275 869.605,641.961 878.602,633.808C905.991,606.724 926.508,586.961 942.538,573.196C960.059,558.152 970.489,550.339 976.45,546.315C968.296,580.805 921.381,732.041 902.143,795.521C898.362,807.997 895.62,817.171 894.395,821.583C889.363,839.712 903.361,848.67 904.016,849.062C914.537,855.124 928,851.504 934.062,840.984C935.347,838.753 936.197,836.391 936.634,833.992C936.877,833.953 936.75,833.187 936.88,832.653C937.922,828.382 940.272,819.493 943.551,807.413C962.082,739.141 1008.92,571.738 1012.61,547.988C1015.92,527.266 1009.62,517.497 1004.23,512.624C998.77,507.697 992.147,505.762 985.8,505.885C978.489,506.025 972.038,509.066 972.038,509.066L973.095,508.698Z" style="fill:white;"/>
        </g>
        <g transform="matrix(1.23417,-0.285131,0.330695,1.06412,-253.142,291.301)">
            <path d="M973.095,508.698C969.44,510.233 960.966,514.591 944.056,526.774C933.041,534.709 917.563,546.403 895.852,563.618C882.706,574.04 867.172,586.284 849.058,601.202C840.06,609.356 839.374,623.28 847.527,632.277C855.681,641.275 869.605,641.961 878.602,633.808C905.991,606.724 926.508,586.961 942.538,573.196C960.059,558.152 970.489,550.339 976.45,546.315C968.296,580.805 921.381,732.041 902.143,795.521C898.362,807.997 895.62,817.171 894.395,821.583C889.363,839.712 903.361,848.67 904.016,849.062C914.537,855.124 928,851.504 934.062,840.984C935.347,838.753 936.197,836.391 936.634,833.992C936.877,833.953 936.75,833.187 936.88,832.653C937.922,828.382 940.272,819.493 943.551,807.413C962.082,739.141 1008.92,571.738 1012.61,547.988C1015.92,527.266 1009.62,517.497 1004.23,512.624C998.77,507.697 992.147,505.762 985.8,505.885C978.489,506.025 972.038,509.066 972.038,509.066L973.095,508.698Z" style="fill:white;"/>
        </g>
        <g transform="matrix(1.23417,-0.285131,0.330695,1.06412,-17.9284,333.46)">
            <path d="M972.786,508.531C968.989,510.141 960.503,514.593 944.033,526.743C934.77,533.576 922.496,543.377 905.679,556.6C890.651,568.417 871.844,582.676 849.058,601.202C840.06,609.356 839.374,623.28 847.527,632.277C855.681,641.275 869.605,641.961 878.602,633.808C905.864,606.559 926.147,586.542 942.236,572.825C959.386,558.204 969.832,550.57 975.942,546.606C968.747,577.057 936.653,676.92 923.353,719.76C920.567,728.731 918.578,735.328 917.712,738.503C912.932,756.025 926.702,764.414 927.621,764.968C938.142,771.03 951.605,767.411 957.667,756.89C959.07,754.456 959.954,751.864 960.348,749.241C963.238,749.804 962.598,740.107 964.844,731.817C977.556,684.899 1009.45,571.776 1013.04,548.062C1016.3,527.113 1009.95,517.253 1004.47,512.36C998.915,507.402 992.222,505.405 985.796,505.575C978.423,505.771 971.928,508.831 971.928,508.831L972.786,508.531Z" style="fill:white;"/>
        </g>
        <g transform="matrix(1.23417,-0.285131,0.330695,1.06412,113.635,207.154)">
            <path d="M935.741,833.785C935.978,833.728 935.842,832.957 935.969,832.416C936.976,828.131 939.231,819.209 942.43,807.091C953.415,765.471 973.652,686.558 990.655,626.813C992.961,618.709 995.325,610.997 997.68,603.801C1006.66,576.36 1014.02,555.884 1015.79,548.528C1017.73,537.055 1010,526.161 998.528,524.214C987.055,522.267 976.161,530 974.214,541.472C973.507,548.456 970.323,568.417 964.316,594.525C962.629,601.858 960.649,609.629 958.386,617.691C941.605,677.452 916.027,754.766 903.264,795.843C899.398,808.285 896.568,817.422 895.307,821.82C890.321,839.212 903.847,847.885 904.474,848.268C914.556,854.077 927.458,850.608 933.268,840.526C934.507,838.376 935.324,836.097 935.741,833.785Z" style="fill:white;"/>
        </g>
        <g transform="matrix(1.23417,-0.285131,0.330695,1.06412,223.281,181.823)">
            <path d="M936.635,833.988C936.863,833.926 936.73,833.174 936.853,832.646C937.855,828.364 940.097,819.447 943.281,807.335C954.228,765.703 974.348,686.757 991.356,627.011C993.663,618.906 996.036,611.195 998.405,604.003C1007.46,576.526 1014.9,556.046 1016.69,548.681C1018.72,536.71 1010.65,525.342 998.681,523.31C986.71,521.279 975.342,529.348 973.31,541.319C972.625,548.296 969.539,568.237 963.591,594.323C961.918,601.659 959.947,609.431 957.684,617.493C940.907,677.256 915.215,754.532 902.413,795.599C898.532,808.048 895.689,817.189 894.423,821.59C889.221,839.665 903.365,848.664 904.016,849.062C914.537,855.124 928,851.504 934.062,840.984C935.348,838.751 936.199,836.386 936.635,833.988Z" style="fill:white;"/>
        </g>
    </g>
</svg>
