<?xml version="1.0" encoding="UTF-8" standalone="no"?><!DOCTYPE svg PUBLIC "-//W3C//DTD SVG 1.1//EN" "http://www.w3.org/Graphics/SVG/1.1/DTD/svg11.dtd"><svg width="100%" height="100%" viewBox="0 0 2313 2296" version="1.1" xmlns="http://www.w3.org/2000/svg" xmlns:xlink="http://www.w3.org/1999/xlink" xml:space="preserve" xmlns:serif="http://www.serif.com/" style="fill-rule:evenodd;clip-rule:evenodd;stroke-linejoin:round;stroke-miterlimit:2;"><rect id="Artboard1" x="0" y="0" width="2312.38" height="2295.67" style="fill:none;"/><ellipse cx="1160.44" cy="1148.73" rx="1045.45" ry="1057.82" style="fill:none;"/><path d="M1236.5,1305.3c0.191,-1.225 0.481,-2.425 0.888,-3.561c13.027,-35.124 45.8,-69.7 79.474,-99.058c28.031,-24.439 58.411,-42.789 79.916,-57.914c20.395,-14.346 33.387,-24.041 33.387,-24.041c27.929,-19.029 35.154,-57.153 16.125,-85.082c-19.028,-27.929 -57.152,-35.154 -85.081,-16.126l-31.831,23.278c-28.857,23.912 -70.342,65.857 -106.765,111.581c-31.161,39.12 -58.739,80.693 -69.238,120.878c-12.746,44.156 -5.491,72.278 6.598,89.12c16.531,23.03 48.636,35.387 92.56,26.974c78.821,-15.097 212.605,-99.058 233.919,-112.664c19.186,-9.347 170.201,-83.296 304.073,-159.931c84.583,-48.42 162.149,-98.536 199.161,-134.839c59.715,-58.573 86.586,-129.462 94.847,-200.089c18.14,-155.101 -59.003,-308.665 -59.003,-308.665c-0.001,-0.004 -0.003,-0.007 -0.005,-0.01c-92.31,-183.259 -271.784,-331.814 -507.026,-406.137c-186.04,-58.779 -407.208,-70.558 -646.285,-16.792c-304.436,69.829 -545.745,271.545 -689.283,531.791c-141.052,255.737 -187.301,567.753 -107.673,864.175c80.472,299.229 280.669,538.208 535.785,681.914c253.806,142.969 561.83,191.576 859.552,111.627c265.291,-71.241 473.889,-233.503 612.332,-432.384c154.822,-222.409 221.437,-490.495 183.436,-728.076c-5.32,-33.374 -36.734,-56.151 -70.108,-50.831c-33.374,5.319 -56.15,36.733 -50.831,70.107c33.123,208.549 -27.527,443.278 -163.62,638.325c-122.967,176.235 -307.982,320.115 -543.316,383.034c-265.458,70.973 -539.981,27.124 -766.029,-100.645c-226.278,-127.899 -404.05,-340.061 -474.998,-605.815c-70.613,-264.204 -28.414,-541.928 97.2,-769.827c126.417,-229.355 337.699,-408.548 605.844,-470.57c215.015,-50.7 414.322,-42.365 582.765,8.26c204.228,61.38 363.148,184.571 445.742,341.538c-0.005,-0.01 51.178,96.81 54.285,206.644c1.754,61.985 -11.688,128.91 -63.9,182.137c-32.524,33.159 -101.87,78.352 -176.828,123.134c-139.071,83.086 -297.582,163.286 -297.582,163.286c-1.707,0.845 -3.359,1.8 -4.944,2.857c0,0 -85.325,58.03 -158.726,89.012c-14.087,5.945 -32.171,10.574 -44.817,13.385Z"/><path d="M422.417,847.506c-7.747,6.012 -24.587,21.332 -55.422,58.851c-19.702,23.972 -47.116,58.778 -85.342,109.272c-23.097,30.511 -50.513,66.233 -82.129,109.428c-18.696,28.988 -10.339,67.702 18.65,86.398c28.989,18.696 67.702,10.339 86.398,-18.65c43.288,-75.902 75.758,-131.667 102.542,-171.415c17.193,-25.516 30.362,-43.872 40.325,-57.032c-0.664,114.277 -13.846,425.325 -18.807,562.614c-1.076,29.759 -1.778,51.617 -1.913,62.074c-0.678,52.533 44.483,66.065 46.532,66.657c33.326,8.899 67.609,-10.933 76.509,-44.26c1.841,-6.895 2.452,-13.831 1.951,-20.571c0.302,-0.19 -0.003,-1.047 -0.164,-1.92l-0.108,-0.938c-0.263,-10.006 -0.423,-30.715 -0.434,-58.857c-0.066,-161.095 2.929,-556.903 -3.132,-611.3c-5.625,-52.939 -28.24,-72.286 -44.676,-80.655c-17.358,-8.838 -35.621,-9.38 -51.777,-4.693c-18.054,5.237 -32.049,17.07 -32.049,17.07l3.046,-2.073Z"/><path d="M666.666,791.471c-7.747,6.012 -24.587,21.332 -55.422,58.851c-19.702,23.972 -47.116,58.779 -85.342,109.273c-23.097,30.51 -50.513,66.232 -82.129,109.427c-18.696,28.989 -10.339,67.703 18.65,86.398c28.988,18.696 67.702,10.339 86.398,-18.65c43.288,-75.902 75.758,-131.667 102.542,-171.415c17.193,-25.515 30.362,-43.872 40.325,-57.032c-0.664,114.277 -13.846,425.326 -18.807,562.614c-1.076,29.76 -1.778,51.617 -1.913,62.075c-0.678,52.532 44.483,66.064 46.532,66.656c33.326,8.899 67.609,-10.932 76.509,-44.259c1.841,-6.896 2.452,-13.832 1.951,-20.571c0.302,-0.191 -0.003,-1.048 -0.164,-1.921l-0.108,-0.938c-0.263,-10.006 -0.423,-30.715 -0.434,-58.856c-0.066,-161.095 2.929,-556.904 -3.132,-611.301c-5.626,-52.939 -28.24,-72.286 -44.676,-80.654c-17.358,-8.838 -35.621,-9.381 -51.777,-4.694c-18.054,5.237 -32.049,17.07 -32.049,17.07l3.046,-2.073Z"/><path d="M912.424,724.402c-7.747,6.013 -24.587,21.332 -55.422,58.851c-19.701,23.972 -47.115,58.779 -85.341,109.273c-23.098,30.511 -50.513,66.233 -82.13,109.427c-18.695,28.989 -10.339,67.703 18.65,86.398c28.989,18.696 67.703,10.339 86.399,-18.649c43.288,-75.902 75.757,-131.667 102.542,-171.416c17.193,-25.515 30.362,-43.872 40.324,-57.031c-0.664,114.276 -13.846,425.325 -18.807,562.614c-1.075,29.759 -1.777,51.617 -1.912,62.074c-0.679,52.532 44.482,66.064 46.531,66.656c33.327,8.9 67.609,-10.932 76.509,-44.259c1.841,-6.895 2.453,-13.832 1.952,-20.571c0.301,-0.191 -0.004,-1.048 -0.164,-1.92l-0.108,-0.939c-0.264,-10.005 -0.423,-30.715 -0.435,-58.856c-0.065,-161.095 2.929,-556.903 -3.131,-611.3c-5.626,-52.939 -28.241,-72.287 -44.676,-80.655c-17.358,-8.838 -35.621,-9.38 -51.777,-4.694c-18.055,5.237 -32.05,17.07 -32.05,17.07l3.046,-2.073Z"/><path d="M1329.63,811.293c-8.128,6.396 -24.884,21.998 -54.324,58.868c-16.418,20.562 -37.656,49.504 -67.288,88.407c-26.435,34.707 -60.092,76.592 -100.098,130.36c-18.696,28.989 -10.339,67.703 18.65,86.399c28.989,18.695 67.702,10.339 86.398,-18.65c33.368,-60.147 59.454,-108.02 83.263,-144.596c25.946,-39.857 44.844,-66.133 58.315,-83.393c-0.823,91.34 -11.56,292.097 -15.557,383.322c-0.944,21.546 -1.489,37.353 -1.56,44.91c-0.479,50.955 43.683,63.31 46.572,64.16c33.327,8.899 67.609,-10.933 76.509,-44.259c1.952,-7.312 2.522,-14.67 1.868,-21.793c6.453,-0.663 -0.633,-21.214 -0.667,-40.439c-0.195,-110.804 2.11,-378.668 -4.201,-432.977c-5.956,-53.523 -28.762,-73.092 -45.446,-81.441c-17.657,-8.834 -36.155,-9.535 -52.487,-4.636c-18.177,5.452 -32.287,17.35 -32.287,17.35l2.34,-1.592Z"/><path d="M1694.12,1294.16c0.191,-0.17 0.061,-0.679 -0.09,-1.279l-0.295,-2.548c-0.379,-10.342 -0.837,-30.619 -1.118,-57.889c-1.01,-97.862 -4.929,-283.013 -2.672,-424.222c0.307,-19.171 1.094,-37.506 2.267,-54.696c4.527,-66.384 9.884,-116.036 9.778,-133.469c-3.227,-34.343 -33.73,-59.605 -68.073,-56.378c-34.344,3.227 -59.606,33.729 -56.379,68.073c2.852,15.556 9.046,60.52 12.022,120.81c0.843,17.071 1.204,35.279 0.987,54.298c-1.611,141.088 -14.209,325.754 -18.708,423.427c-1.371,29.761 -2.371,51.599 -2.63,62.059c-1.301,52.508 44.41,66.041 46.451,66.657c33.327,8.9 67.61,-10.932 76.509,-44.259c1.842,-6.899 2.454,-13.838 1.951,-20.584Z"/><path d="M1889.16,1241.9c0.191,-0.17 0.061,-0.679 -0.091,-1.278l-0.294,-2.549c-0.379,-10.342 -0.837,-30.619 -1.118,-57.889c-1.01,-97.861 -4.929,-283.013 -2.672,-424.221c0.307,-19.171 1.094,-37.507 2.266,-54.697c4.528,-66.384 9.884,-116.036 9.779,-133.468c-3.227,-34.344 -33.73,-59.606 -68.073,-56.379c-34.344,3.227 -59.606,33.729 -56.379,68.073c2.852,15.556 9.046,60.52 12.022,120.81c0.843,17.071 1.204,35.279 0.987,54.299c-1.611,141.087 -14.209,325.753 -18.708,423.426c-1.371,29.762 -2.371,51.599 -2.631,62.059c-1.3,52.508 44.411,66.041 46.452,66.657c33.327,8.9 67.609,-10.932 76.509,-44.259c1.842,-6.899 2.453,-13.838 1.951,-20.584Z"/></svg>