<?xml version="1.0" encoding="UTF-8" standalone="no"?>
<!DOCTYPE svg PUBLIC "-//W3C//DTD SVG 1.1//EN" "http://www.w3.org/Graphics/SVG/1.1/DTD/svg11.dtd">
<svg width="100%" height="100%" viewBox="0 0 1018 999" version="1.1" xmlns="http://www.w3.org/2000/svg" xmlns:xlink="http://www.w3.org/1999/xlink" xml:space="preserve" xmlns:serif="http://www.serif.com/" style="fill-rule:evenodd;clip-rule:evenodd;stroke-linejoin:round;stroke-miterlimit:2;">
    <g id="Artboard1" transform="matrix(0.782652,0,0,0.907721,-469.591,-181.544)">
        <rect x="600" y="200" width="1300" height="1100" style="fill:none;"/>
        <g transform="matrix(1.17263,-0.270914,0.314206,1.01106,-411.841,364.369)">
            <path d="M1239.51,798.396C1239.96,796.787 1240.46,794.942 1241.42,793.498C1249.18,781.737 1262.81,771.535 1277.21,762.547C1310.18,741.953 1348.45,729.115 1348.45,729.115C1359,725.427 1364.57,713.868 1360.88,703.318C1357.19,692.768 1345.63,687.197 1335.08,690.885C1335.08,690.885 1292.6,706.206 1256.41,730.289C1237.53,742.853 1220.43,757.803 1210.57,773.849C1199.87,791.2 1199.54,804.136 1202.82,812.727C1207.26,824.386 1219.73,833.165 1239.38,834.253C1277.52,836.366 1350.2,812.08 1357,809.779C1366.52,807.276 1479.37,777.554 1566.58,752.373C1605.35,741.176 1639.12,730.878 1656.78,724.099C1677.43,716.177 1691.53,701.925 1701.02,685.669C1721.57,650.436 1719.35,605.699 1719.35,605.699C1719.33,605.246 1719.28,604.794 1719.22,604.345C1701.07,479.797 1637.68,378.888 1546.25,309.824C1458.37,243.433 1344.49,206.467 1220,206.726C1081.22,207.007 955.609,263.553 864.75,354.75C774.02,445.817 717.92,571.422 718.153,710C718.335,848.419 774.687,973.725 865.566,1064.43C956.38,1155.08 1081.68,1211.2 1220,1211.12C1283.4,1211.14 1343.98,1199.15 1399.92,1177.86C1457.98,1155.77 1510.88,1123.35 1556.7,1083C1602.9,1042.31 1641.74,993.546 1671.09,938.769C1699.93,884.92 1719.58,825.399 1727.62,762.046C1728.75,750.927 1720.64,740.983 1709.52,739.854C1698.4,738.725 1688.46,746.836 1687.33,757.954C1682.82,817.098 1667.66,873.386 1643.02,924.498C1617.55,977.345 1582.47,1024.83 1539.83,1064.33C1497.17,1103.87 1447.02,1135.5 1391.88,1156.99C1338.6,1177.77 1280.57,1188.86 1220,1188.88C1087.88,1188.8 968.185,1135.14 881.605,1048.39C795.09,961.717 741.673,842.02 741.847,710C742.069,578.14 795.769,458.753 882.421,372.421C968.944,286.219 1088.34,233.008 1220,233.274C1338.15,233.52 1446.22,268.713 1529.35,332.097C1614.45,396.976 1673.27,491.449 1689.86,607.751C1689.97,611.873 1690.22,637.406 1679.96,661.137C1673.77,675.458 1663.57,689.275 1646.04,695.901C1624.4,704.079 1578.07,717.568 1528.33,731.225C1443.22,754.592 1348.24,778.445 1348.24,778.445C1347.85,778.546 1347.46,778.662 1347.07,778.792C1347.07,778.792 1288.87,797.879 1251.16,799.269C1247.45,799.406 1242.94,798.905 1239.51,798.396Z" style="fill:white;"/>
        </g>
        <g transform="matrix(1.23417,-0.285131,0.330695,1.06412,-528.62,350.973)">
            <path d="M974.988,511.899C971.589,513.261 960.749,518.622 934.027,538.82C916.117,552.358 889.751,572.67 852.135,604.599C845.012,611.053 844.469,622.077 850.924,629.2C857.378,636.323 868.402,636.866 875.525,630.411C903.206,603.53 924.023,583.971 940.156,570.27C966.427,547.96 977.342,541.243 981.077,539.304C981.2,540.385 981.255,541.537 981.059,542.634C976.837,565.966 926.494,729.91 906.456,796.76C902.729,809.194 900.026,818.339 898.821,822.736C894.795,837.428 905.773,844.775 906.304,845.091C914.633,849.89 925.291,847.024 930.091,838.696C931.137,836.879 931.819,834.952 932.16,832.997C932.408,832.962 932.296,832.143 932.455,831.5C933.515,827.215 935.908,818.296 939.238,806.174C957.946,738.071 1005.19,571.066 1008.94,547.366C1011.97,528.654 1006.6,519.746 1001.74,515.336C997.044,511.084 991.321,509.457 985.852,509.557C979.34,509.675 973.593,512.386 973.593,512.386L974.988,511.899Z" style="fill:white;"/>
        </g>
        <g transform="matrix(1.23417,-0.285131,0.330695,1.06412,-391.305,323.811)">
            <path d="M974.988,511.899C971.589,513.261 960.749,518.622 934.027,538.82C916.117,552.358 889.751,572.67 852.135,604.599C845.012,611.053 844.469,622.077 850.924,629.2C857.378,636.323 868.402,636.866 875.525,630.411C903.206,603.53 924.023,583.971 940.156,570.27C966.427,547.96 977.342,541.243 981.077,539.304C981.2,540.385 981.255,541.537 981.059,542.634C976.837,565.966 926.494,729.91 906.456,796.76C902.729,809.194 900.026,818.339 898.821,822.736C894.795,837.428 905.773,844.775 906.304,845.091C914.633,849.89 925.291,847.024 930.091,838.696C931.137,836.879 931.819,834.952 932.16,832.997C932.408,832.962 932.296,832.143 932.455,831.5C933.515,827.215 935.908,818.296 939.238,806.174C957.946,738.071 1005.19,571.066 1008.94,547.366C1011.97,528.654 1006.6,519.746 1001.74,515.336C997.044,511.084 991.321,509.457 985.852,509.557C979.34,509.675 973.593,512.386 973.593,512.386L974.988,511.899Z" style="fill:white;"/>
        </g>
        <g transform="matrix(1.23417,-0.285131,0.330695,1.06412,-253.142,291.301)">
            <path d="M974.988,511.899C971.589,513.261 960.749,518.622 934.027,538.82C916.117,552.358 889.751,572.67 852.135,604.599C845.012,611.053 844.469,622.077 850.924,629.2C857.378,636.323 868.402,636.866 875.525,630.411C903.206,603.53 924.023,583.971 940.156,570.27C966.427,547.96 977.342,541.243 981.077,539.304C981.2,540.385 981.255,541.537 981.059,542.634C976.837,565.966 926.494,729.91 906.456,796.76C902.729,809.194 900.026,818.339 898.821,822.736C894.795,837.428 905.773,844.775 906.304,845.091C914.633,849.89 925.291,847.024 930.091,838.696C931.137,836.879 931.819,834.952 932.16,832.997C932.408,832.962 932.296,832.143 932.455,831.5C933.515,827.215 935.908,818.296 939.238,806.174C957.946,738.071 1005.19,571.066 1008.94,547.366C1011.97,528.654 1006.6,519.746 1001.74,515.336C997.044,511.084 991.321,509.457 985.852,509.557C979.34,509.675 973.593,512.386 973.593,512.386L974.988,511.899Z" style="fill:white;"/>
        </g>
        <g transform="matrix(1.23417,-0.285131,0.330695,1.06412,-17.9284,333.46)">
            <path d="M974.063,512.005C970.595,513.465 962.468,517.685 946.212,529.686C936.996,536.49 924.763,546.224 908.118,559.499C893.218,571.381 874.642,585.879 852.135,604.599C845.012,611.053 844.469,622.077 850.924,629.2C857.378,636.323 868.402,636.866 875.525,630.411C903.104,603.401 923.738,583.638 939.917,569.976C965.546,548.334 976.708,541.624 980.782,539.6C980.873,540.576 980.894,541.598 980.717,542.576C976.462,565.69 941.624,675.474 927.675,721.016C924.947,729.921 922.994,736.469 922.148,739.621C918.358,753.736 929.168,760.554 929.91,760.997C938.238,765.796 948.897,762.931 953.696,754.602C954.768,752.742 955.457,750.766 955.786,748.764C955.831,748.713 955.832,748.585 955.834,748.444L955.893,748.047L955.902,747.95C956.622,744.916 958.253,738.81 960.522,730.561C973.38,683.806 1005.61,571.067 1009.28,547.424C1012.28,528.535 1006.86,519.554 1001.93,515.127C997.163,510.847 991.38,509.18 985.849,509.312C979.288,509.469 973.505,512.199 973.505,512.199L974.063,512.005Z" style="fill:white;"/>
        </g>
        <g transform="matrix(1.23417,-0.285131,0.330695,1.06412,113.635,207.154)">
            <path d="M932.16,832.995C932.401,832.946 932.28,832.134 932.433,831.495C933.461,827.2 935.77,818.259 939.024,806.113C950.164,764.542 970.868,685.759 987.849,626.02C990.151,617.921 992.482,610.204 994.779,602.994C1003.48,575.694 1010.51,555.234 1012.17,547.914C1013.78,538.437 1007.39,529.437 997.914,527.829C988.437,526.221 979.437,532.609 977.829,542.086C977.037,549.098 973.461,569.133 967.218,595.331C965.472,602.654 963.459,610.42 961.192,618.484C944.393,678.237 919.278,755.698 906.67,796.821C902.864,809.234 900.08,818.353 898.843,822.742C894.708,837.397 905.775,844.771 906.304,845.091C914.633,849.89 925.291,847.024 930.091,838.696C931.138,836.878 931.82,834.95 932.16,832.995Z" style="fill:white;"/>
        </g>
        <g transform="matrix(1.23417,-0.285131,0.330695,1.06412,223.281,181.823)">
            <path d="M932.16,832.995C932.401,832.946 932.28,832.134 932.433,831.495C933.461,827.2 935.77,818.259 939.024,806.113C950.164,764.542 970.868,685.759 987.849,626.02C990.151,617.921 992.482,610.204 994.779,602.994C1003.48,575.694 1010.51,555.234 1012.17,547.914C1013.78,538.437 1007.39,529.437 997.914,527.829C988.437,526.221 979.437,532.609 977.829,542.086C977.037,549.098 973.461,569.133 967.218,595.331C965.472,602.654 963.459,610.42 961.192,618.484C944.393,678.237 919.278,755.698 906.67,796.821C902.864,809.234 900.08,818.353 898.843,822.742C894.708,837.397 905.775,844.771 906.304,845.091C914.633,849.89 925.291,847.024 930.091,838.696C931.138,836.878 931.82,834.95 932.16,832.995Z" style="fill:white;"/>
        </g>
    </g>
</svg>
