<?xml version="1.0" encoding="UTF-8" standalone="no"?>
<!DOCTYPE svg PUBLIC "-//W3C//DTD SVG 1.1//EN" "http://www.w3.org/Graphics/SVG/1.1/DTD/svg11.dtd">
<svg width="100%" height="100%" viewBox="0 0 1018 999" version="1.1" xmlns="http://www.w3.org/2000/svg" xmlns:xlink="http://www.w3.org/1999/xlink" xml:space="preserve" xmlns:serif="http://www.serif.com/" style="fill-rule:evenodd;clip-rule:evenodd;stroke-linejoin:round;stroke-miterlimit:2;">
    <g id="Artboard1" transform="matrix(0.782652,0,0,0.907721,-469.591,-181.544)">
        <rect x="600" y="200" width="1300" height="1100" style="fill:none;"/>
        <g transform="matrix(1.17263,-0.270914,0.314206,1.01106,-411.841,364.369)">
            <path d="M1239.51,798.398C1239.96,796.788 1240.46,794.941 1241.41,793.496C1249.18,781.735 1262.81,771.534 1277.2,762.545C1310.18,741.952 1348.45,729.115 1348.45,729.115C1359,725.427 1364.57,713.868 1360.88,703.318C1357.19,692.768 1345.63,687.197 1335.08,690.885C1335.08,690.885 1292.6,706.206 1256.41,730.291C1237.53,742.854 1220.43,757.804 1210.57,773.851C1199.87,791.201 1199.55,804.135 1202.82,812.727C1207.27,824.385 1219.73,833.162 1239.38,834.251C1277.46,836.36 1349.98,812.151 1356.96,809.786C1365.94,807.472 1460.27,783.075 1535.04,761.314C1566.6,752.128 1594.73,743.423 1611.7,736.908C1643.32,724.775 1665.04,703.039 1679.8,678.337C1712.89,622.95 1709.97,552.588 1709.97,552.588C1709.95,552.092 1709.91,551.597 1709.84,551.104C1691.26,423.531 1627.98,335.492 1535.85,280.21C1451.22,229.432 1341.83,206.467 1220,206.721C1081.22,207.002 955.607,263.549 864.747,354.747C774.017,445.815 717.917,571.421 718.151,710C718.333,848.419 774.686,973.725 865.566,1064.43C956.38,1155.08 1081.68,1211.2 1220,1211.12C1283.4,1211.14 1343.99,1199.15 1399.92,1177.86C1457.98,1155.77 1510.88,1123.34 1556.69,1083C1602.89,1042.31 1641.74,993.543 1671.08,938.767C1699.93,884.918 1719.58,825.399 1727.62,762.046C1728.75,750.927 1720.64,740.983 1709.52,739.854C1698.4,738.725 1688.46,746.836 1687.33,757.954C1682.82,817.098 1667.66,873.388 1643.03,924.5C1617.56,977.348 1582.47,1024.83 1539.84,1064.34C1497.17,1103.87 1447.02,1135.5 1391.88,1156.99C1338.6,1177.77 1280.57,1188.86 1220,1188.88C1087.88,1188.8 968.186,1135.14 881.605,1048.39C795.091,961.717 741.675,842.019 741.849,710C742.072,578.14 795.772,458.755 882.424,372.424C968.946,286.222 1088.34,233.013 1220,233.279C1336.34,233.522 1440.85,255.257 1521.44,304.098C1606.13,355.421 1663.86,436.949 1680.64,554.436C1680.77,560.339 1681.1,605.021 1662.62,646.474C1651.22,672.06 1632.45,696.56 1600.88,708.493C1579.97,716.396 1541.7,727.668 1501.23,738.792C1428.31,758.837 1348.32,778.427 1348.32,778.427C1347.9,778.533 1347.49,778.656 1347.08,778.795C1347.08,778.795 1288.87,797.882 1251.16,799.272C1247.44,799.409 1242.94,798.907 1239.51,798.398Z" style="fill:rgb(255,181,0);"/>
        </g>
        <g transform="matrix(1.23417,-0.285131,0.330695,1.06412,-528.62,350.973)">
            <path d="M974.988,511.899C971.589,513.261 960.749,518.622 934.027,538.82C916.117,552.358 889.751,572.67 852.135,604.599C845.012,611.053 844.469,622.077 850.924,629.2C857.378,636.323 868.402,636.866 875.525,630.411C903.206,603.53 924.023,583.971 940.156,570.27C966.427,547.96 977.342,541.243 981.077,539.304C981.2,540.385 981.255,541.537 981.059,542.634C976.837,565.966 926.494,729.91 906.456,796.76C902.729,809.194 900.026,818.339 898.821,822.736C894.795,837.428 905.773,844.775 906.304,845.091C914.633,849.89 925.291,847.024 930.091,838.696C931.137,836.879 931.819,834.952 932.16,832.997C932.408,832.962 932.296,832.143 932.455,831.5C933.515,827.215 935.908,818.296 939.238,806.174C957.946,738.071 1005.19,571.066 1008.94,547.366C1011.97,528.654 1006.6,519.746 1001.74,515.336C997.044,511.084 991.321,509.457 985.852,509.557C979.34,509.675 973.593,512.386 973.593,512.386L974.988,511.899Z" style="fill:rgb(255,181,0);"/>
        </g>
        <g transform="matrix(1.23417,-0.285131,0.330695,1.06412,-391.305,323.811)">
            <path d="M974.988,511.899C971.589,513.261 960.749,518.622 934.027,538.82C916.117,552.358 889.751,572.67 852.135,604.599C845.012,611.053 844.469,622.077 850.924,629.2C857.378,636.323 868.402,636.866 875.525,630.411C903.206,603.53 924.023,583.971 940.156,570.27C966.427,547.96 977.342,541.243 981.077,539.304C981.2,540.385 981.255,541.537 981.059,542.634C976.837,565.966 926.494,729.91 906.456,796.76C902.729,809.194 900.026,818.339 898.821,822.736C894.795,837.428 905.773,844.775 906.304,845.091C914.633,849.89 925.291,847.024 930.091,838.696C931.137,836.879 931.819,834.952 932.16,832.997C932.408,832.962 932.296,832.143 932.455,831.5C933.515,827.215 935.908,818.296 939.238,806.174C957.946,738.071 1005.19,571.066 1008.94,547.366C1011.97,528.654 1006.6,519.746 1001.74,515.336C997.044,511.084 991.321,509.457 985.852,509.557C979.34,509.675 973.593,512.386 973.593,512.386L974.988,511.899Z" style="fill:rgb(255,181,0);"/>
        </g>
        <g transform="matrix(1.23417,-0.285131,0.330695,1.06412,-253.142,291.301)">
            <path d="M974.988,511.899C971.589,513.261 960.749,518.622 934.027,538.82C916.117,552.358 889.751,572.67 852.135,604.599C845.012,611.053 844.469,622.077 850.924,629.2C857.378,636.323 868.402,636.866 875.525,630.411C903.206,603.53 924.023,583.971 940.156,570.27C966.427,547.96 977.342,541.243 981.077,539.304C981.2,540.385 981.255,541.537 981.059,542.634C976.837,565.966 926.494,729.91 906.456,796.76C902.729,809.194 900.026,818.339 898.821,822.736C894.795,837.428 905.773,844.775 906.304,845.091C914.633,849.89 925.291,847.024 930.091,838.696C931.137,836.879 931.819,834.952 932.16,832.997C932.408,832.962 932.296,832.143 932.455,831.5C933.515,827.215 935.908,818.296 939.238,806.174C957.946,738.071 1005.19,571.066 1008.94,547.366C1011.97,528.654 1006.6,519.746 1001.74,515.336C997.044,511.084 991.321,509.457 985.852,509.557C979.34,509.675 973.593,512.386 973.593,512.386L974.988,511.899Z" style="fill:rgb(255,181,0);"/>
        </g>
        <g transform="matrix(1.23417,-0.285131,0.330695,1.06412,-17.9284,333.46)">
            <path d="M974.063,512.005C970.595,513.465 962.468,517.685 946.212,529.686C936.996,536.49 924.763,546.224 908.118,559.499C893.218,571.381 874.642,585.879 852.135,604.599C845.012,611.053 844.469,622.077 850.924,629.2C857.378,636.323 868.402,636.866 875.525,630.411C903.104,603.401 923.738,583.638 939.917,569.976C965.546,548.334 976.708,541.624 980.782,539.6C980.873,540.576 980.894,541.598 980.717,542.576C976.462,565.69 941.624,675.474 927.675,721.016C924.947,729.921 922.994,736.469 922.148,739.621C918.358,753.736 929.168,760.554 929.91,760.997C938.238,765.796 948.897,762.931 953.696,754.602C954.768,752.742 955.457,750.766 955.786,748.764C955.831,748.713 955.832,748.585 955.834,748.444L955.893,748.047L955.902,747.95C956.622,744.916 958.253,738.81 960.522,730.561C973.38,683.806 1005.61,571.067 1009.28,547.424C1012.28,528.535 1006.86,519.554 1001.93,515.127C997.163,510.847 991.38,509.18 985.849,509.312C979.288,509.469 973.505,512.199 973.505,512.199L974.063,512.005Z" style="fill:rgb(255,181,0);"/>
        </g>
        <g transform="matrix(1.23417,-0.285131,0.330695,1.06412,113.635,207.154)">
            <path d="M932.16,832.995C932.401,832.946 932.28,832.134 932.433,831.495C933.461,827.2 935.77,818.259 939.024,806.113C950.164,764.542 970.868,685.759 987.849,626.02C990.151,617.921 992.482,610.204 994.779,602.994C1003.48,575.694 1010.51,555.234 1012.17,547.914C1013.78,538.437 1007.39,529.437 997.914,527.829C988.437,526.221 979.437,532.609 977.829,542.086C977.037,549.098 973.461,569.133 967.218,595.331C965.472,602.654 963.459,610.42 961.192,618.484C944.393,678.237 919.278,755.698 906.67,796.821C902.864,809.234 900.08,818.353 898.843,822.742C894.708,837.397 905.775,844.771 906.304,845.091C914.633,849.89 925.291,847.024 930.091,838.696C931.138,836.878 931.82,834.95 932.16,832.995Z" style="fill:rgb(255,181,0);"/>
        </g>
        <g transform="matrix(1.23417,-0.285131,0.330695,1.06412,223.281,181.823)">
            <path d="M932.16,832.995C932.401,832.946 932.28,832.134 932.433,831.495C933.461,827.2 935.77,818.259 939.024,806.113C950.164,764.542 970.868,685.759 987.849,626.02C990.151,617.921 992.482,610.204 994.779,602.994C1003.48,575.694 1010.51,555.234 1012.17,547.914C1013.78,538.437 1007.39,529.437 997.914,527.829C988.437,526.221 979.437,532.609 977.829,542.086C977.037,549.098 973.461,569.133 967.218,595.331C965.472,602.654 963.459,610.42 961.192,618.484C944.393,678.237 919.278,755.698 906.67,796.821C902.864,809.234 900.08,818.353 898.843,822.742C894.708,837.397 905.775,844.771 906.304,845.091C914.633,849.89 925.291,847.024 930.091,838.696C931.138,836.878 931.82,834.95 932.16,832.995Z" style="fill:rgb(255,181,0);"/>
        </g>
    </g>
</svg>
